<?xml version="1.0" encoding="UTF-8"?> <!-- Generator: Adobe Illustrator 24.2.1, SVG Export Plug-In . SVG Version: 6.00 Build 0) --> <svg xmlns="http://www.w3.org/2000/svg" xmlns:xlink="http://www.w3.org/1999/xlink" version="1.1" id="Art" x="0px" y="0px" viewBox="0 0 450 300" style="enable-background:new 0 0 450 300;" xml:space="preserve"> <style type="text/css"> .st0{fill:#FFFFFF;stroke:#3059A7;stroke-linecap:round;stroke-miterlimit:10;stroke-dasharray:3.02,3.02;} .st1{fill:#010101;} .st2{fill:#3059A7;} .st3{fill:#FFFFFF;stroke:#3059A7;stroke-width:0.75;stroke-miterlimit:10;} .st4{fill:#3059A7;stroke:#3059A7;stroke-width:5;stroke-miterlimit:10;} .st5{fill:none;stroke:#3059A7;stroke-width:2;stroke-miterlimit:10;} .st6{fill:none;stroke:#3059A7;stroke-width:5;stroke-miterlimit:10;} .st7{fill:#FFFFFF;} .st8{fill:#305AA8;} .st9{fill:#305AA8;stroke:#FFFFFF;stroke-width:2;stroke-miterlimit:10;} .st10{fill:#FFFFFF;stroke:#305AA8;stroke-miterlimit:10;} </style> <g> <path class="st0" d="M432.2,104.8h-107c-1.9,0-3.4-1.5-3.4-3.4V56c0-1.9,1.5-3.4,3.4-3.4h107c1.9,0,3.4,1.5,3.4,3.4v45.4 C435.6,103.3,434.1,104.8,432.2,104.8z"></path> <g> <path class="st1" d="M349.8,66.1v3h-1.8v-8.5h3.3c0.6,0,1.2,0.1,1.7,0.4s0.9,0.6,1.1,1s0.4,0.9,0.4,1.5c0,0.8-0.3,1.5-0.9,2 s-1.4,0.7-2.4,0.7H349.8z M349.8,64.7h1.6c0.5,0,0.8-0.1,1.1-0.3s0.4-0.5,0.4-0.9c0-0.4-0.1-0.8-0.4-1s-0.6-0.4-1-0.4h-1.6V64.7z"></path> <path class="st1" d="M359.2,64.4c-0.2,0-0.4,0-0.6,0c-0.6,0-1.1,0.2-1.3,0.7v4.1h-1.7v-6.3h1.6l0,0.8c0.3-0.6,0.8-0.9,1.4-0.9 c0.2,0,0.4,0,0.5,0.1L359.2,64.4z"></path> <path class="st1" d="M360,61.2c0-0.3,0.1-0.5,0.3-0.6s0.4-0.2,0.7-0.2c0.3,0,0.5,0.1,0.7,0.2s0.3,0.4,0.3,0.6 c0,0.3-0.1,0.5-0.3,0.6S361.3,62,361,62s-0.5-0.1-0.7-0.2S360,61.4,360,61.2z M361.8,69.1h-1.7v-6.3h1.7V69.1z"></path> <path class="st1" d="M365.6,67.1l1.2-4.3h1.8l-2.1,6.3h-1.6l-2.1-6.3h1.8L365.6,67.1z"></path> <path class="st1" d="M372.9,69.1c-0.1-0.2-0.1-0.3-0.2-0.6c-0.4,0.5-0.9,0.7-1.6,0.7c-0.6,0-1.1-0.2-1.5-0.5s-0.6-0.8-0.6-1.4 c0-0.7,0.2-1.2,0.7-1.5s1.2-0.5,2.2-0.5h0.8v-0.4c0-0.3-0.1-0.5-0.2-0.7s-0.4-0.3-0.7-0.3c-0.3,0-0.5,0.1-0.7,0.2 s-0.2,0.3-0.2,0.6h-1.7c0-0.4,0.1-0.7,0.3-1s0.5-0.6,1-0.7s0.9-0.3,1.4-0.3c0.8,0,1.4,0.2,1.9,0.6s0.7,0.9,0.7,1.7v2.7 c0,0.6,0.1,1.1,0.3,1.4v0.1H372.9z M371.5,68c0.3,0,0.5-0.1,0.7-0.2s0.4-0.3,0.5-0.4v-1.1H372c-0.8,0-1.3,0.3-1.4,0.9l0,0.1 c0,0.2,0.1,0.4,0.2,0.5S371.2,68,371.5,68z"></path> <path class="st1" d="M378.3,67.9c0.3,0,0.6-0.1,0.8-0.3s0.3-0.4,0.3-0.7h1.6c0,0.4-0.1,0.8-0.4,1.2s-0.5,0.6-0.9,0.8 s-0.8,0.3-1.3,0.3c-0.9,0-1.6-0.3-2.1-0.9s-0.8-1.4-0.8-2.4v-0.1c0-1,0.3-1.8,0.8-2.3s1.2-0.9,2.1-0.9c0.8,0,1.4,0.2,1.9,0.7 s0.7,1.1,0.7,1.8h-1.6c0-0.3-0.1-0.6-0.3-0.8s-0.5-0.3-0.8-0.3c-0.4,0-0.7,0.1-0.9,0.4c-0.2,0.3-0.3,0.8-0.3,1.4v0.2 c0,0.7,0.1,1.1,0.3,1.4C377.6,67.7,377.9,67.9,378.3,67.9z"></path> <path class="st1" d="M384.3,66.7l1.2-3.9h1.8l-2.5,7.3l-0.1,0.3c-0.4,0.8-1,1.2-1.9,1.2c-0.2,0-0.5,0-0.8-0.1v-1.3l0.3,0 c0.3,0,0.6,0,0.7-0.1s0.3-0.3,0.4-0.5l0.2-0.5l-2.2-6.4h1.8L384.3,66.7z"></path> <path class="st1" d="M394.6,69.1c-0.1-0.2-0.1-0.3-0.2-0.6c-0.4,0.5-0.9,0.7-1.6,0.7c-0.6,0-1.1-0.2-1.5-0.5s-0.6-0.8-0.6-1.4 c0-0.7,0.2-1.2,0.7-1.5s1.2-0.5,2.2-0.5h0.8v-0.4c0-0.3-0.1-0.5-0.2-0.7s-0.4-0.3-0.7-0.3c-0.3,0-0.5,0.1-0.7,0.2 s-0.2,0.3-0.2,0.6h-1.7c0-0.4,0.1-0.7,0.3-1s0.5-0.6,1-0.7s0.9-0.3,1.4-0.3c0.8,0,1.4,0.2,1.9,0.6s0.7,0.9,0.7,1.7v2.7 c0,0.6,0.1,1.1,0.3,1.4v0.1H394.6z M393.2,68c0.3,0,0.5-0.1,0.7-0.2s0.4-0.3,0.5-0.4v-1.1h-0.6c-0.8,0-1.3,0.3-1.4,0.9l0,0.1 c0,0.2,0.1,0.4,0.2,0.5S392.9,68,393.2,68z"></path> <path class="st1" d="M398.9,62.8l0.1,0.7c0.5-0.6,1.1-0.8,1.8-0.8c0.7,0,1.2,0.2,1.5,0.6s0.5,1,0.5,1.8v4.1h-1.7v-4.1 c0-0.4-0.1-0.6-0.2-0.8s-0.4-0.2-0.8-0.2c-0.5,0-0.8,0.2-1.1,0.6v4.5h-1.7v-6.3H398.9z"></path> <path class="st1" d="M403.8,65.9c0-1,0.2-1.8,0.7-2.4s1-0.9,1.8-0.9c0.6,0,1.1,0.2,1.5,0.7v-3.2h1.7v9H408l-0.1-0.7 c-0.4,0.5-1,0.8-1.6,0.8c-0.7,0-1.3-0.3-1.8-0.9S403.8,67,403.8,65.9z M405.5,66c0,0.6,0.1,1.1,0.3,1.4c0.2,0.3,0.5,0.5,0.9,0.5 c0.5,0,0.9-0.2,1.1-0.7v-2.5c-0.2-0.4-0.6-0.7-1.1-0.7C405.9,64.1,405.5,64.7,405.5,66z"></path> <path class="st1" d="M353.8,80.1h-3.4v3.5h-1.8V75h5.6v1.4h-3.8v2.2h3.4V80.1z"></path> <path class="st1" d="M358.5,78.8c-0.2,0-0.4,0-0.6,0c-0.6,0-1.1,0.2-1.3,0.7v4.1H355v-6.3h1.6l0,0.8c0.3-0.6,0.8-0.9,1.4-0.9 c0.2,0,0.4,0,0.5,0.1L358.5,78.8z"></path> <path class="st1" d="M362.2,83.7c-0.9,0-1.7-0.3-2.3-0.9s-0.9-1.3-0.9-2.3v-0.2c0-0.6,0.1-1.2,0.4-1.7s0.6-0.9,1-1.2 s1-0.4,1.5-0.4c0.9,0,1.5,0.3,2,0.8s0.7,1.3,0.7,2.3v0.7h-4c0.1,0.4,0.2,0.7,0.5,1s0.6,0.4,1,0.4c0.7,0,1.2-0.2,1.5-0.7l0.8,0.9 c-0.3,0.4-0.6,0.6-1,0.8S362.7,83.7,362.2,83.7z M362,78.4c-0.3,0-0.6,0.1-0.8,0.3s-0.3,0.6-0.4,1h2.4v-0.1c0-0.4-0.1-0.7-0.3-0.9 S362.3,78.4,362,78.4z"></path> <path class="st1" d="M368.6,83.7c-0.9,0-1.7-0.3-2.3-0.9s-0.9-1.3-0.9-2.3v-0.2c0-0.6,0.1-1.2,0.4-1.7s0.6-0.9,1-1.2 s1-0.4,1.5-0.4c0.9,0,1.5,0.3,2,0.8s0.7,1.3,0.7,2.3v0.7h-4c0.1,0.4,0.2,0.7,0.5,1s0.6,0.4,1,0.4c0.7,0,1.2-0.2,1.5-0.7l0.8,0.9 c-0.3,0.4-0.6,0.6-1,0.8S369.2,83.7,368.6,83.7z M368.5,78.4c-0.3,0-0.6,0.1-0.8,0.3s-0.3,0.6-0.4,1h2.4v-0.1 c0-0.4-0.1-0.7-0.3-0.9S368.8,78.4,368.5,78.4z"></path> <path class="st1" d="M372,80.3c0-1,0.2-1.8,0.7-2.4s1-0.9,1.8-0.9c0.6,0,1.1,0.2,1.5,0.7v-3.2h1.7v9h-1.5l-0.1-0.7 c-0.4,0.5-1,0.8-1.6,0.8c-0.7,0-1.3-0.3-1.8-0.9S372,81.4,372,80.3z M373.6,80.4c0,0.6,0.1,1.1,0.3,1.4c0.2,0.3,0.5,0.5,0.9,0.5 c0.5,0,0.9-0.2,1.1-0.7v-2.5c-0.2-0.4-0.6-0.7-1.1-0.7C374.1,78.5,373.6,79.1,373.6,80.4z"></path> <path class="st1" d="M378.7,80.3c0-0.6,0.1-1.2,0.4-1.7s0.6-0.9,1-1.1s1-0.4,1.6-0.4c0.9,0,1.6,0.3,2.1,0.8s0.8,1.2,0.9,2.1l0,0.4 c0,1-0.3,1.8-0.8,2.3s-1.3,0.9-2.2,0.9s-1.6-0.3-2.2-0.9S378.7,81.4,378.7,80.3L378.7,80.3z M380.4,80.4c0,0.6,0.1,1.1,0.3,1.4 c0.2,0.3,0.6,0.5,1,0.5c0.4,0,0.7-0.2,1-0.5c0.2-0.3,0.3-0.8,0.3-1.5c0-0.6-0.1-1-0.3-1.4c-0.2-0.3-0.6-0.5-1-0.5 c-0.4,0-0.7,0.2-1,0.5C380.5,79.3,380.4,79.8,380.4,80.4z"></path> <path class="st1" d="M387.3,77.2l0.1,0.7c0.4-0.6,1.1-0.8,1.8-0.8c0.8,0,1.4,0.3,1.7,1c0.4-0.6,1.1-1,1.9-1c0.7,0,1.2,0.2,1.5,0.6 s0.5,1,0.5,1.8v4h-1.7v-4c0-0.4-0.1-0.6-0.2-0.8s-0.4-0.2-0.7-0.2c-0.5,0-0.9,0.2-1.1,0.7l0,4.4h-1.7v-4c0-0.4-0.1-0.6-0.2-0.8 s-0.4-0.2-0.7-0.2c-0.5,0-0.8,0.2-1,0.6v4.5h-1.7v-6.3H387.3z"></path> <path class="st1" d="M398.9,80.3c0-0.6,0.1-1.2,0.4-1.7s0.6-0.9,1-1.1s1-0.4,1.6-0.4c0.9,0,1.6,0.3,2.1,0.8s0.8,1.2,0.9,2.1l0,0.4 c0,1-0.3,1.8-0.8,2.3s-1.3,0.9-2.2,0.9s-1.6-0.3-2.2-0.9S398.9,81.4,398.9,80.3L398.9,80.3z M400.6,80.4c0,0.6,0.1,1.1,0.3,1.4 c0.2,0.3,0.6,0.5,1,0.5c0.4,0,0.7-0.2,1-0.5c0.2-0.3,0.3-0.8,0.3-1.5c0-0.6-0.1-1-0.3-1.4c-0.2-0.3-0.6-0.5-1-0.5 c-0.4,0-0.7,0.2-1,0.5C400.7,79.3,400.6,79.8,400.6,80.4z"></path> <path class="st1" d="M406.4,83.5v-5.1h-0.9v-1.2h0.9v-0.5c0-0.7,0.2-1.3,0.6-1.7s1-0.6,1.7-0.6c0.2,0,0.5,0,0.9,0.1l0,1.3 c-0.1,0-0.3-0.1-0.5-0.1c-0.6,0-1,0.3-1,0.9v0.5h1.3v1.2h-1.3v5.1H406.4z"></path> <path class="st1" d="M354.9,94.2h-3.4v2.3h4v1.4h-5.7v-8.5h5.7v1.4h-3.9v2h3.4V94.2z"></path> <path class="st1" d="M358.9,93.5l1.1-1.9h1.8l-1.8,3.1l1.9,3.2H360l-1.1-2l-1.1,2h-1.8l1.9-3.2l-1.8-3.1h1.8L358.9,93.5z"></path> <path class="st1" d="M368.3,94.8c0,1-0.2,1.8-0.7,2.3s-1,0.9-1.8,0.9c-0.6,0-1.2-0.2-1.6-0.7v3h-1.7v-8.8h1.6l0.1,0.6 c0.4-0.5,0.9-0.7,1.6-0.7c0.8,0,1.4,0.3,1.8,0.9S368.3,93.7,368.3,94.8L368.3,94.8z M366.6,94.7c0-0.6-0.1-1-0.3-1.4 s-0.5-0.5-0.9-0.5c-0.5,0-0.9,0.2-1.1,0.6v2.6c0.2,0.4,0.6,0.6,1.1,0.6C366.2,96.7,366.6,96,366.6,94.7z"></path> <path class="st1" d="M372.9,93.2c-0.2,0-0.4,0-0.6,0c-0.6,0-1.1,0.2-1.3,0.7v4.1h-1.7v-6.3h1.6l0,0.8c0.3-0.6,0.8-0.9,1.4-0.9 c0.2,0,0.4,0,0.5,0.1L372.9,93.2z"></path> <path class="st1" d="M376.5,98.1c-0.9,0-1.7-0.3-2.3-0.9s-0.9-1.3-0.9-2.3v-0.2c0-0.6,0.1-1.2,0.4-1.7s0.6-0.9,1-1.2 s1-0.4,1.5-0.4c0.9,0,1.5,0.3,2,0.8s0.7,1.3,0.7,2.3v0.7h-4c0.1,0.4,0.2,0.7,0.5,1s0.6,0.4,1,0.4c0.7,0,1.2-0.2,1.5-0.7l0.8,0.9 c-0.3,0.4-0.6,0.6-1,0.8S377,98.1,376.5,98.1z M376.3,92.8c-0.3,0-0.6,0.1-0.8,0.3s-0.3,0.6-0.4,1h2.4V94c0-0.4-0.1-0.7-0.3-0.9 S376.7,92.8,376.3,92.8z"></path> <path class="st1" d="M383.5,96.2c0-0.2-0.1-0.4-0.3-0.5s-0.5-0.2-1-0.3c-1.5-0.3-2.3-1-2.3-1.9c0-0.6,0.2-1,0.7-1.4 s1.1-0.6,1.8-0.6c0.8,0,1.4,0.2,1.9,0.6s0.7,0.9,0.7,1.5h-1.7c0-0.2-0.1-0.4-0.2-0.6s-0.4-0.2-0.7-0.2c-0.3,0-0.5,0.1-0.7,0.2 s-0.2,0.3-0.2,0.5c0,0.2,0.1,0.3,0.3,0.5s0.5,0.2,0.9,0.3s0.8,0.2,1.1,0.3c0.9,0.3,1.3,0.9,1.3,1.7c0,0.6-0.2,1-0.7,1.4 s-1.1,0.5-1.9,0.5c-0.5,0-1-0.1-1.4-0.3s-0.7-0.4-1-0.8s-0.4-0.7-0.4-1.1h1.6c0,0.3,0.1,0.5,0.3,0.7s0.5,0.2,0.8,0.2 c0.3,0,0.6-0.1,0.7-0.2S383.5,96.4,383.5,96.2z"></path> <path class="st1" d="M389.7,96.2c0-0.2-0.1-0.4-0.3-0.5s-0.5-0.2-1-0.3c-1.5-0.3-2.3-1-2.3-1.9c0-0.6,0.2-1,0.7-1.4 s1.1-0.6,1.8-0.6c0.8,0,1.4,0.2,1.9,0.6s0.7,0.9,0.7,1.5h-1.7c0-0.2-0.1-0.4-0.2-0.6s-0.4-0.2-0.7-0.2c-0.3,0-0.5,0.1-0.7,0.2 s-0.2,0.3-0.2,0.5c0,0.2,0.1,0.3,0.3,0.5s0.5,0.2,0.9,0.3s0.8,0.2,1.1,0.3c0.9,0.3,1.3,0.9,1.3,1.7c0,0.6-0.2,1-0.7,1.4 s-1.1,0.5-1.9,0.5c-0.5,0-1-0.1-1.4-0.3s-0.7-0.4-1-0.8s-0.4-0.7-0.4-1.1h1.6c0,0.3,0.1,0.5,0.3,0.7s0.5,0.2,0.8,0.2 c0.3,0,0.6-0.1,0.7-0.2S389.7,96.4,389.7,96.2z"></path> <path class="st1" d="M392.4,90c0-0.3,0.1-0.5,0.3-0.6s0.4-0.2,0.7-0.2c0.3,0,0.5,0.1,0.7,0.2s0.3,0.4,0.3,0.6 c0,0.3-0.1,0.5-0.3,0.6s-0.4,0.2-0.7,0.2s-0.5-0.1-0.7-0.2S392.4,90.2,392.4,90z M394.2,97.9h-1.7v-6.3h1.7V97.9z"></path> <path class="st1" d="M395.3,94.7c0-0.6,0.1-1.2,0.4-1.7s0.6-0.9,1-1.1s1-0.4,1.6-0.4c0.9,0,1.6,0.3,2.1,0.8s0.8,1.2,0.9,2.1l0,0.4 c0,1-0.3,1.8-0.8,2.3s-1.3,0.9-2.2,0.9s-1.6-0.3-2.2-0.9S395.3,95.8,395.3,94.7L395.3,94.7z M397,94.8c0,0.6,0.1,1.1,0.3,1.4 c0.2,0.3,0.6,0.5,1,0.5c0.4,0,0.7-0.2,1-0.5c0.2-0.3,0.3-0.8,0.3-1.5c0-0.6-0.1-1-0.3-1.4c-0.2-0.3-0.6-0.5-1-0.5 c-0.4,0-0.7,0.2-1,0.5C397.1,93.7,397,94.2,397,94.8z"></path> <path class="st1" d="M403.9,91.6l0.1,0.7c0.5-0.6,1.1-0.8,1.8-0.8c0.7,0,1.2,0.2,1.5,0.6s0.5,1,0.5,1.8v4.1h-1.7v-4.1 c0-0.4-0.1-0.6-0.2-0.8s-0.4-0.2-0.8-0.2c-0.5,0-0.8,0.2-1.1,0.6v4.5h-1.7v-6.3H403.9z"></path> </g> <g> <path class="st2" d="M431.6,50c3.8,0,7,3.1,7,7v43.9c0,3.8-3.1,7-7,7H325.9c-3.8,0-7-3.1-7-7V57c0-3.8,3.1-7,7-7H431.6 M431.6,48 H325.9c-4.9,0-9,4-9,9v43.9c0,4.9,4,9,9,9h105.7c4.9,0,9-4,9-9V57C440.6,52,436.6,48,431.6,48L431.6,48z"></path> </g> </g> <path class="st3" d="M184.7,62.2l83.3,1.6c22.4,0.4,35.4,25.5,22.9,44.1l-42.4,62.7c-11.4,16.8-36.3,16.5-47.2-0.7l-40.9-64.2 C148.2,86.6,162.2,61.8,184.7,62.2z"></path> <g> <path d="M333.7,281c0-0.2-0.1-0.4-0.3-0.6c-0.2-0.1-0.5-0.3-0.9-0.4c-0.4-0.1-0.8-0.3-1.1-0.5c-0.5-0.3-0.8-0.7-0.8-1.2 c0-0.4,0.2-0.8,0.5-1.1c0.4-0.3,0.8-0.4,1.4-0.4c0.4,0,0.7,0.1,1,0.2c0.3,0.1,0.5,0.3,0.7,0.6c0.2,0.3,0.3,0.6,0.3,0.9h-1 c0-0.3-0.1-0.5-0.3-0.7c-0.2-0.2-0.4-0.2-0.8-0.2c-0.3,0-0.6,0.1-0.7,0.2c-0.2,0.1-0.3,0.3-0.3,0.6c0,0.2,0.1,0.4,0.3,0.5 s0.5,0.3,0.9,0.4s0.8,0.3,1,0.4c0.3,0.2,0.5,0.4,0.6,0.6c0.1,0.2,0.2,0.5,0.2,0.7c0,0.5-0.2,0.8-0.5,1.1c-0.4,0.3-0.8,0.4-1.4,0.4 c-0.4,0-0.8-0.1-1.1-0.2s-0.6-0.4-0.8-0.6s-0.3-0.6-0.3-0.9h1c0,0.3,0.1,0.6,0.3,0.7c0.2,0.2,0.5,0.3,0.9,0.3 c0.3,0,0.6-0.1,0.8-0.2C333.6,281.4,333.7,281.3,333.7,281z"></path> <path d="M335.3,280.4c0-0.4,0.1-0.8,0.2-1.1c0.2-0.3,0.4-0.6,0.7-0.7c0.3-0.2,0.6-0.3,1-0.3c0.6,0,1,0.2,1.4,0.5 c0.3,0.4,0.5,0.8,0.6,1.4l0,0.2c0,0.4-0.1,0.8-0.2,1.1c-0.2,0.3-0.4,0.6-0.7,0.7s-0.6,0.3-1,0.3c-0.6,0-1.1-0.2-1.4-0.6 S335.3,281.1,335.3,280.4L335.3,280.4z M336.2,280.4c0,0.4,0.1,0.8,0.3,1c0.2,0.2,0.4,0.4,0.7,0.4s0.6-0.1,0.7-0.4 c0.2-0.2,0.3-0.6,0.3-1.1c0-0.4-0.1-0.8-0.3-1s-0.4-0.4-0.7-0.4c-0.3,0-0.5,0.1-0.7,0.4C336.3,279.6,336.2,280,336.2,280.4z"></path> <path d="M342.4,282.1c-0.3,0.3-0.7,0.5-1.2,0.5c-0.4,0-0.8-0.1-1-0.4c-0.2-0.3-0.3-0.6-0.3-1.1v-2.7h0.9v2.7c0,0.5,0.2,0.8,0.7,0.8 c0.5,0,0.8-0.2,0.9-0.5v-3h0.9v4.1h-0.9L342.4,282.1z"></path> <path d="M346.4,279.2c-0.1,0-0.2,0-0.4,0c-0.4,0-0.7,0.2-0.9,0.5v2.8h-0.9v-4.1h0.9l0,0.5c0.2-0.4,0.5-0.5,0.9-0.5 c0.1,0,0.2,0,0.3,0.1L346.4,279.2z"></path> <path d="M348.6,281.8c0.2,0,0.4-0.1,0.6-0.2c0.2-0.1,0.2-0.3,0.2-0.5h0.9c0,0.3-0.1,0.5-0.2,0.7c-0.2,0.2-0.4,0.4-0.6,0.5 c-0.3,0.1-0.5,0.2-0.8,0.2c-0.6,0-1-0.2-1.4-0.6c-0.3-0.4-0.5-0.9-0.5-1.6v-0.1c0-0.6,0.2-1.1,0.5-1.5c0.3-0.4,0.8-0.6,1.4-0.6 c0.5,0,0.9,0.1,1.2,0.4c0.3,0.3,0.5,0.7,0.5,1.1h-0.9c0-0.2-0.1-0.4-0.2-0.6c-0.2-0.2-0.3-0.2-0.6-0.2c-0.3,0-0.5,0.1-0.7,0.3 s-0.2,0.5-0.2,1v0.1c0,0.4,0.1,0.8,0.2,1C348.1,281.7,348.3,281.8,348.6,281.8z"></path> <path d="M352.9,282.5c-0.6,0-1.1-0.2-1.4-0.6s-0.5-0.9-0.5-1.5v-0.1c0-0.4,0.1-0.8,0.2-1.1s0.4-0.6,0.7-0.8c0.3-0.2,0.6-0.3,1-0.3 c0.6,0,1,0.2,1.3,0.5c0.3,0.4,0.5,0.9,0.5,1.5v0.4h-2.7c0,0.3,0.1,0.6,0.3,0.8s0.5,0.3,0.8,0.3c0.4,0,0.8-0.2,1-0.5l0.5,0.5 c-0.2,0.2-0.4,0.4-0.7,0.6C353.5,282.5,353.2,282.5,352.9,282.5z M352.7,279c-0.3,0-0.5,0.1-0.6,0.3c-0.2,0.2-0.3,0.4-0.3,0.7h1.8 v-0.1c0-0.3-0.1-0.5-0.2-0.7C353.2,279.1,353,279,352.7,279z"></path> <path d="M355.8,278.2c0.2,0,0.3,0,0.4,0.1c0.1,0.1,0.1,0.2,0.1,0.4c0,0.1,0,0.3-0.1,0.4c-0.1,0.1-0.2,0.1-0.4,0.1 c-0.2,0-0.3,0-0.4-0.1c-0.1-0.1-0.1-0.2-0.1-0.4c0-0.1,0-0.3,0.1-0.4C355.5,278.3,355.6,278.2,355.8,278.2z M355.8,281.5 c0.2,0,0.3,0,0.4,0.1c0.1,0.1,0.1,0.2,0.1,0.4c0,0.1,0,0.3-0.1,0.4c-0.1,0.1-0.2,0.1-0.4,0.1c-0.2,0-0.3,0-0.4-0.1 c-0.1-0.1-0.1-0.2-0.1-0.4c0-0.1,0-0.3,0.1-0.4C355.5,281.5,355.6,281.5,355.8,281.5z"></path> <path d="M360.3,281.7h2.5v0.8h-3.5v-5.6h1V281.7z"></path> <path d="M365.3,282.5c-0.6,0-1.1-0.2-1.4-0.6s-0.5-0.9-0.5-1.5v-0.1c0-0.4,0.1-0.8,0.2-1.1s0.4-0.6,0.7-0.8c0.3-0.2,0.6-0.3,1-0.3 c0.6,0,1,0.2,1.3,0.5c0.3,0.4,0.5,0.9,0.5,1.5v0.4h-2.7c0,0.3,0.1,0.6,0.3,0.8s0.5,0.3,0.8,0.3c0.4,0,0.8-0.2,1-0.5l0.5,0.5 c-0.2,0.2-0.4,0.4-0.7,0.6C366,282.5,365.7,282.5,365.3,282.5z M365.2,279c-0.3,0-0.5,0.1-0.6,0.3c-0.2,0.2-0.3,0.4-0.3,0.7h1.8 v-0.1c0-0.3-0.1-0.5-0.2-0.7C365.7,279.1,365.5,279,365.2,279z"></path> <path d="M369.5,282.5c-0.6,0-1.1-0.2-1.4-0.6s-0.5-0.9-0.5-1.5v-0.1c0-0.4,0.1-0.8,0.2-1.1s0.4-0.6,0.7-0.8c0.3-0.2,0.6-0.3,1-0.3 c0.6,0,1,0.2,1.3,0.5c0.3,0.4,0.5,0.9,0.5,1.5v0.4h-2.7c0,0.3,0.1,0.6,0.3,0.8s0.5,0.3,0.8,0.3c0.4,0,0.8-0.2,1-0.5l0.5,0.5 c-0.2,0.2-0.4,0.4-0.7,0.6C370.2,282.5,369.9,282.5,369.5,282.5z M369.4,279c-0.3,0-0.5,0.1-0.6,0.3c-0.2,0.2-0.3,0.4-0.3,0.7h1.8 v-0.1c0-0.3-0.1-0.5-0.2-0.7C369.9,279.1,369.7,279,369.4,279z"></path> <path d="M375.5,281.2l0.7-2.9h0.9l-1.1,4.1h-0.8l-0.9-2.8l-0.9,2.8h-0.8l-1.1-4.1h0.9l0.7,2.8l0.8-2.8h0.7L375.5,281.2z"></path> <path d="M380.2,282.5c0-0.1-0.1-0.2-0.1-0.4c-0.3,0.3-0.7,0.5-1.1,0.5c-0.4,0-0.8-0.1-1-0.4s-0.4-0.5-0.4-0.9c0-0.4,0.2-0.8,0.5-1 c0.3-0.2,0.8-0.4,1.4-0.4h0.6v-0.3c0-0.2-0.1-0.4-0.2-0.5s-0.3-0.2-0.5-0.2c-0.2,0-0.4,0.1-0.5,0.2c-0.1,0.1-0.2,0.2-0.2,0.4h-0.9 c0-0.2,0.1-0.4,0.2-0.6c0.2-0.2,0.4-0.4,0.6-0.5s0.5-0.2,0.9-0.2c0.5,0,0.9,0.1,1.2,0.4c0.3,0.2,0.4,0.6,0.4,1v1.9 c0,0.4,0.1,0.7,0.2,0.9v0.1H380.2z M379.2,281.8c0.2,0,0.4,0,0.5-0.1c0.2-0.1,0.3-0.2,0.4-0.4v-0.8h-0.5c-0.3,0-0.6,0.1-0.8,0.2 c-0.2,0.1-0.3,0.3-0.3,0.5c0,0.2,0.1,0.3,0.2,0.4C378.8,281.7,379,281.8,379.2,281.8z"></path> <path d="M383.4,281.1l0.8-2.8h1l-1.6,4.8c-0.3,0.7-0.7,1-1.3,1c-0.1,0-0.3,0-0.4-0.1v-0.7l0.2,0c0.2,0,0.4,0,0.5-0.1 c0.1-0.1,0.2-0.2,0.3-0.4l0.1-0.4l-1.5-4.1h1L383.4,281.1z"></path> <path d="M390.2,282.5h-1V280h-2.5v2.5h-1v-5.6h1v2.3h2.5v-2.3h1V282.5z"></path> <path d="M393.1,282.5c-0.6,0-1.1-0.2-1.4-0.6s-0.5-0.9-0.5-1.5v-0.1c0-0.4,0.1-0.8,0.2-1.1s0.4-0.6,0.7-0.8c0.3-0.2,0.6-0.3,1-0.3 c0.6,0,1,0.2,1.3,0.5c0.3,0.4,0.5,0.9,0.5,1.5v0.4h-2.7c0,0.3,0.1,0.6,0.3,0.8s0.5,0.3,0.8,0.3c0.4,0,0.8-0.2,1-0.5l0.5,0.5 c-0.2,0.2-0.4,0.4-0.7,0.6C393.8,282.5,393.5,282.5,393.1,282.5z M393,279c-0.3,0-0.5,0.1-0.6,0.3c-0.2,0.2-0.3,0.4-0.3,0.7h1.8 v-0.1c0-0.3-0.1-0.5-0.2-0.7C393.5,279.1,393.3,279,393,279z"></path> <path d="M397.7,279.2c-0.1,0-0.2,0-0.4,0c-0.4,0-0.7,0.2-0.9,0.5v2.8h-0.9v-4.1h0.9l0,0.5c0.2-0.4,0.5-0.5,0.9-0.5 c0.1,0,0.2,0,0.3,0.1L397.7,279.2z"></path> <path d="M399.6,277.3v1h0.7v0.7h-0.7v2.3c0,0.2,0,0.3,0.1,0.3s0.2,0.1,0.3,0.1c0.1,0,0.2,0,0.3,0v0.7c-0.2,0.1-0.4,0.1-0.6,0.1 c-0.7,0-1.1-0.4-1.1-1.2V279H398v-0.7h0.7v-1H399.6z"></path> <path d="M402,281.7h2.2v0.7h-3.4v-0.6l2.1-2.8h-2.1v-0.7h3.2v0.6L402,281.7z"></path> </g> <g> <path class="st1" d="M221.6,91.2l1.1-6.1h1.8l-1.9,8.5h-1.8l-1.4-5.7l-1.4,5.7h-1.8l-1.9-8.5h1.8l1.2,6.1l1.4-6.1h1.5L221.6,91.2z"></path> <path class="st1" d="M227,88c0.4-0.5,1-0.8,1.7-0.8c1.4,0,2.1,0.8,2.1,2.4v4.1h-1.7v-4c0-0.4-0.1-0.6-0.2-0.8s-0.4-0.3-0.8-0.3 c-0.5,0-0.9,0.2-1.1,0.6v4.5h-1.7v-9h1.7V88z"></path> <path class="st1" d="M234.4,91.2l1.2-3.9h1.8l-2.5,7.3l-0.1,0.3c-0.4,0.8-1,1.2-1.9,1.2c-0.2,0-0.5,0-0.8-0.1v-1.3l0.3,0 c0.3,0,0.6,0,0.7-0.1s0.3-0.3,0.4-0.5l0.2-0.5l-2.2-6.4h1.8L234.4,91.2z"></path> <path class="st1" d="M189.5,108v-8.5h2.6c0.8,0,1.4,0.2,2,0.5s1.1,0.8,1.4,1.4s0.5,1.3,0.5,2.1v0.4c0,0.8-0.2,1.5-0.5,2.1 s-0.8,1.1-1.4,1.4s-1.3,0.5-2,0.5H189.5z M191.3,100.9v5.7h0.8c0.7,0,1.2-0.2,1.6-0.7s0.5-1.1,0.6-1.9v-0.5c0-0.9-0.2-1.5-0.5-2 s-0.9-0.7-1.6-0.7H191.3z"></path> <path class="st1" d="M200.1,108.2c-0.9,0-1.7-0.3-2.3-0.9S197,106,197,105v-0.2c0-0.6,0.1-1.2,0.4-1.7s0.6-0.9,1-1.2s1-0.4,1.5-0.4 c0.9,0,1.5,0.3,2,0.8s0.7,1.3,0.7,2.3v0.7h-4c0.1,0.4,0.2,0.7,0.5,1s0.6,0.4,1,0.4c0.7,0,1.2-0.2,1.5-0.7l0.8,0.9 c-0.3,0.4-0.6,0.6-1,0.8S200.7,108.2,200.1,108.2z M200,102.9c-0.3,0-0.6,0.1-0.8,0.3s-0.3,0.6-0.4,1h2.4v-0.1 c0-0.4-0.1-0.7-0.3-0.9S200.3,102.9,200,102.9z"></path> <path class="st1" d="M206.4,106.8c0.3,0,0.6-0.1,0.8-0.3s0.3-0.4,0.3-0.7h1.6c0,0.4-0.1,0.8-0.4,1.2s-0.5,0.6-0.9,0.8 s-0.8,0.3-1.3,0.3c-0.9,0-1.6-0.3-2.1-0.9s-0.8-1.4-0.8-2.4v-0.1c0-1,0.3-1.8,0.8-2.3s1.2-0.9,2.1-0.9c0.8,0,1.4,0.2,1.9,0.7 s0.7,1.1,0.7,1.8h-1.6c0-0.3-0.1-0.6-0.3-0.8c-0.2-0.2-0.5-0.3-0.8-0.3c-0.4,0-0.7,0.1-0.9,0.4c-0.2,0.3-0.3,0.8-0.3,1.4v0.2 c0,0.7,0.1,1.1,0.3,1.4C205.6,106.6,205.9,106.8,206.4,106.8z"></path> <path class="st1" d="M212.9,108.2c-0.9,0-1.7-0.3-2.3-0.9s-0.9-1.3-0.9-2.3v-0.2c0-0.6,0.1-1.2,0.4-1.7s0.6-0.9,1-1.2 s1-0.4,1.5-0.4c0.9,0,1.5,0.3,2,0.8s0.7,1.3,0.7,2.3v0.7h-4c0.1,0.4,0.2,0.7,0.5,1s0.6,0.4,1,0.4c0.7,0,1.2-0.2,1.5-0.7l0.8,0.9 c-0.3,0.4-0.6,0.6-1,0.8S213.4,108.2,212.9,108.2z M212.7,102.9c-0.3,0-0.6,0.1-0.8,0.3s-0.3,0.6-0.4,1h2.4v-0.1 c0-0.4-0.1-0.7-0.3-0.9S213.1,102.9,212.7,102.9z"></path> <path class="st1" d="M218,101.7l0.1,0.7c0.5-0.6,1.1-0.8,1.8-0.8c0.7,0,1.2,0.2,1.5,0.6s0.5,1,0.5,1.8v4.1h-1.7V104 c0-0.4-0.1-0.6-0.2-0.8s-0.4-0.2-0.8-0.2c-0.5,0-0.8,0.2-1.1,0.6v4.5h-1.7v-6.3H218z"></path> <path class="st1" d="M225.2,100.1v1.6h1.1v1.2h-1.1v3.2c0,0.2,0,0.4,0.1,0.5s0.3,0.2,0.5,0.2c0.2,0,0.4,0,0.5,0v1.3 c-0.3,0.1-0.7,0.2-1,0.2c-1.2,0-1.8-0.6-1.8-1.8v-3.4h-0.9v-1.2h0.9v-1.6H225.2z"></path> <path class="st1" d="M230.8,103.3c-0.2,0-0.4,0-0.6,0c-0.6,0-1.1,0.2-1.3,0.7v4.1h-1.7v-6.3h1.6l0,0.8c0.3-0.6,0.8-0.9,1.4-0.9 c0.2,0,0.4,0,0.5,0.1L230.8,103.3z"></path> <path class="st1" d="M235.1,108c-0.1-0.2-0.1-0.3-0.2-0.6c-0.4,0.5-0.9,0.7-1.6,0.7c-0.6,0-1.1-0.2-1.5-0.5s-0.6-0.8-0.6-1.4 c0-0.7,0.2-1.2,0.7-1.5s1.2-0.5,2.2-0.5h0.8v-0.4c0-0.3-0.1-0.5-0.2-0.7s-0.4-0.3-0.7-0.3c-0.3,0-0.5,0.1-0.7,0.2s-0.2,0.3-0.2,0.6 h-1.7c0-0.4,0.1-0.7,0.3-1s0.5-0.6,1-0.7s0.9-0.3,1.4-0.3c0.8,0,1.4,0.2,1.9,0.6s0.7,0.9,0.7,1.7v2.7c0,0.6,0.1,1.1,0.3,1.4v0.1 H235.1z M233.7,106.9c0.3,0,0.5-0.1,0.7-0.2s0.4-0.3,0.5-0.4v-1.1h-0.6c-0.8,0-1.3,0.3-1.4,0.9l0,0.1c0,0.2,0.1,0.4,0.2,0.5 S233.5,106.9,233.7,106.9z"></path> <path class="st1" d="M239.7,108H238v-9h1.7V108z"></path> <path class="st1" d="M241,100.1c0-0.3,0.1-0.5,0.3-0.6s0.4-0.2,0.7-0.2c0.3,0,0.5,0.1,0.7,0.2s0.3,0.4,0.3,0.6 c0,0.3-0.1,0.5-0.3,0.6s-0.4,0.2-0.7,0.2s-0.5-0.1-0.7-0.2S241,100.3,241,100.1z M242.8,108h-1.7v-6.3h1.7V108z"></path> <path class="st1" d="M246.2,106.7h3.1v1.4H244v-1l3-3.9h-2.9v-1.4h5.1v1L246.2,106.7z"></path> <path class="st1" d="M253.2,108.2c-0.9,0-1.7-0.3-2.3-0.9S250,106,250,105v-0.2c0-0.6,0.1-1.2,0.4-1.7s0.6-0.9,1-1.2s1-0.4,1.5-0.4 c0.9,0,1.5,0.3,2,0.8s0.7,1.3,0.7,2.3v0.7h-4c0.1,0.4,0.2,0.7,0.5,1s0.6,0.4,1,0.4c0.7,0,1.2-0.2,1.5-0.7l0.8,0.9 c-0.3,0.4-0.6,0.6-1,0.8S253.7,108.2,253.2,108.2z M253,102.9c-0.3,0-0.6,0.1-0.8,0.3s-0.3,0.6-0.4,1h2.4v-0.1 c0-0.4-0.1-0.7-0.3-0.9S253.3,102.9,253,102.9z"></path> <path class="st1" d="M256.5,104.8c0-1,0.2-1.8,0.7-2.4s1-0.9,1.8-0.9c0.6,0,1.1,0.2,1.5,0.7V99h1.7v9h-1.5l-0.1-0.7 c-0.4,0.5-1,0.8-1.6,0.8c-0.7,0-1.3-0.3-1.8-0.9S256.5,105.9,256.5,104.8z M258.2,104.9c0,0.6,0.1,1.1,0.3,1.4 c0.2,0.3,0.5,0.5,0.9,0.5c0.5,0,0.9-0.2,1.1-0.7v-2.5c-0.2-0.4-0.6-0.7-1.1-0.7C258.6,103,258.2,103.6,258.2,104.9z"></path> <path class="st1" d="M214.4,120.2c0-0.3-0.1-0.6-0.4-0.8s-0.7-0.4-1.3-0.6s-1.1-0.4-1.4-0.6c-1-0.5-1.5-1.2-1.5-2.1 c0-0.5,0.1-0.9,0.4-1.2s0.6-0.6,1.1-0.8s1-0.3,1.6-0.3c0.6,0,1.2,0.1,1.6,0.3s0.8,0.5,1.1,0.9s0.4,0.9,0.4,1.4h-1.8 c0-0.4-0.1-0.7-0.4-0.9s-0.6-0.3-1-0.3c-0.4,0-0.8,0.1-1,0.3s-0.4,0.4-0.4,0.7c0,0.3,0.1,0.5,0.4,0.7s0.7,0.4,1.2,0.5 c1,0.3,1.7,0.7,2.2,1.1s0.7,1,0.7,1.7c0,0.7-0.3,1.3-0.8,1.7s-1.3,0.6-2.3,0.6c-0.7,0-1.3-0.1-1.8-0.4s-1-0.6-1.2-1 s-0.4-0.9-0.4-1.5h1.8c0,0.9,0.6,1.4,1.7,1.4c0.4,0,0.7-0.1,1-0.3S214.4,120.5,214.4,120.2z"></path> <path class="st1" d="M217,119.2c0-0.6,0.1-1.2,0.4-1.7s0.6-0.9,1-1.1s1-0.4,1.6-0.4c0.9,0,1.6,0.3,2.1,0.8s0.8,1.2,0.9,2.1l0,0.4 c0,1-0.3,1.8-0.8,2.3s-1.3,0.9-2.2,0.9s-1.6-0.3-2.2-0.9S217,120.3,217,119.2L217,119.2z M218.7,119.3c0,0.6,0.1,1.1,0.3,1.4 c0.2,0.3,0.6,0.5,1,0.5c0.4,0,0.7-0.2,1-0.5c0.2-0.3,0.3-0.8,0.3-1.5c0-0.6-0.1-1-0.3-1.4c-0.2-0.3-0.6-0.5-1-0.5 c-0.4,0-0.7,0.2-1,0.5C218.8,118.2,218.7,118.7,218.7,119.3z"></path> <path class="st1" d="M226.7,121.2c0.3,0,0.6-0.1,0.8-0.3s0.3-0.4,0.3-0.7h1.6c0,0.4-0.1,0.8-0.4,1.2s-0.5,0.6-0.9,0.8 s-0.8,0.3-1.3,0.3c-0.9,0-1.6-0.3-2.1-0.9s-0.8-1.4-0.8-2.4v-0.1c0-1,0.3-1.8,0.8-2.3s1.2-0.9,2.1-0.9c0.8,0,1.4,0.2,1.9,0.7 s0.7,1.1,0.7,1.8h-1.6c0-0.3-0.1-0.6-0.3-0.8s-0.5-0.3-0.8-0.3c-0.4,0-0.7,0.1-0.9,0.4s-0.3,0.8-0.3,1.4v0.2c0,0.7,0.1,1.1,0.3,1.4 C225.9,121,226.2,121.2,226.7,121.2z"></path> <path class="st1" d="M230.3,114.5c0-0.3,0.1-0.5,0.3-0.6s0.4-0.2,0.7-0.2c0.3,0,0.5,0.1,0.7,0.2s0.3,0.4,0.3,0.6 c0,0.3-0.1,0.5-0.3,0.6s-0.4,0.2-0.7,0.2s-0.5-0.1-0.7-0.2S230.3,114.7,230.3,114.5z M232.1,122.4h-1.7v-6.3h1.7V122.4z"></path> <path class="st1" d="M237.1,122.4c-0.1-0.2-0.1-0.3-0.2-0.6c-0.4,0.5-0.9,0.7-1.6,0.7c-0.6,0-1.1-0.2-1.5-0.5s-0.6-0.8-0.6-1.4 c0-0.7,0.2-1.2,0.7-1.5s1.2-0.5,2.2-0.5h0.8v-0.4c0-0.3-0.1-0.5-0.2-0.7s-0.4-0.3-0.7-0.3c-0.3,0-0.5,0.1-0.7,0.2s-0.2,0.3-0.2,0.6 h-1.7c0-0.4,0.1-0.7,0.3-1s0.5-0.6,1-0.7s0.9-0.3,1.4-0.3c0.8,0,1.4,0.2,1.9,0.6s0.7,0.9,0.7,1.7v2.7c0,0.6,0.1,1.1,0.3,1.4v0.1 H237.1z M235.7,121.3c0.3,0,0.5-0.1,0.7-0.2s0.4-0.3,0.5-0.4v-1.1h-0.6c-0.8,0-1.3,0.3-1.4,0.9l0,0.1c0,0.2,0.1,0.4,0.2,0.5 S235.5,121.3,235.7,121.3z"></path> <path class="st1" d="M241.7,122.4H240v-9h1.7V122.4z"></path> <path class="st1" d="M207.8,136.8h-1.8l-3.4-5.6v5.6h-1.8v-8.5h1.8l3.4,5.6v-5.6h1.8V136.8z"></path> <path class="st1" d="M212.2,137c-0.9,0-1.7-0.3-2.3-0.9s-0.9-1.3-0.9-2.3v-0.2c0-0.6,0.1-1.2,0.4-1.7s0.6-0.9,1-1.2s1-0.4,1.5-0.4 c0.9,0,1.5,0.3,2,0.8s0.7,1.3,0.7,2.3v0.7h-4c0.1,0.4,0.2,0.7,0.5,1s0.6,0.4,1,0.4c0.7,0,1.2-0.2,1.5-0.7l0.8,0.9 c-0.3,0.4-0.6,0.6-1,0.8S212.7,137,212.2,137z M212,131.7c-0.3,0-0.6,0.1-0.8,0.3s-0.3,0.6-0.4,1h2.4v-0.1c0-0.4-0.1-0.7-0.3-0.9 S212.3,131.7,212,131.7z"></path> <path class="st1" d="M217.8,128.9v1.6h1.1v1.2h-1.1v3.2c0,0.2,0,0.4,0.1,0.5s0.3,0.2,0.5,0.2c0.2,0,0.4,0,0.5,0v1.3 c-0.3,0.1-0.7,0.2-1,0.2c-1.2,0-1.8-0.6-1.8-1.8v-3.4h-0.9v-1.2h0.9v-1.6H217.8z"></path> <path class="st1" d="M225.3,134.5l0.8-4h1.6l-1.6,6.3h-1.4l-1.2-4l-1.2,4h-1.4l-1.6-6.3h1.6l0.8,4l1.2-4h1.2L225.3,134.5z"></path> <path class="st1" d="M228.3,133.6c0-0.6,0.1-1.2,0.4-1.7s0.6-0.9,1-1.1s1-0.4,1.6-0.4c0.9,0,1.6,0.3,2.1,0.8s0.8,1.2,0.9,2.1l0,0.4 c0,1-0.3,1.8-0.8,2.3s-1.3,0.9-2.2,0.9s-1.6-0.3-2.2-0.9S228.3,134.7,228.3,133.6L228.3,133.6z M230,133.7c0,0.6,0.1,1.1,0.3,1.4 c0.2,0.3,0.6,0.5,1,0.5c0.4,0,0.7-0.2,1-0.5c0.2-0.3,0.3-0.8,0.3-1.5c0-0.6-0.1-1-0.3-1.4c-0.2-0.3-0.6-0.5-1-0.5 c-0.4,0-0.7,0.2-1,0.5C230.2,132.6,230,133.1,230,133.7z"></path> <path class="st1" d="M239,132.1c-0.2,0-0.4,0-0.6,0c-0.6,0-1.1,0.2-1.3,0.7v4.1h-1.7v-6.3h1.6l0,0.8c0.3-0.6,0.8-0.9,1.4-0.9 c0.2,0,0.4,0,0.5,0.1L239,132.1z"></path> <path class="st1" d="M242.1,134.3l-0.6,0.6v1.9h-1.7v-9h1.7v5l0.3-0.4l1.6-1.9h2l-2.3,2.6l2.5,3.7h-1.9L242.1,134.3z"></path> <path class="st1" d="M247.6,134.2c0-0.5,0.1-1,0.2-1.3s0.4-0.6,0.7-1s0.6-0.6,0.7-0.8s0.2-0.4,0.2-0.6c0-0.7-0.3-1-0.9-1 c-0.3,0-0.5,0.1-0.7,0.3c-0.2,0.2-0.3,0.4-0.3,0.7h-1.7c0-0.7,0.2-1.3,0.7-1.8s1.1-0.6,1.9-0.6c0.8,0,1.5,0.2,1.9,0.6 c0.5,0.4,0.7,1,0.7,1.7c0,0.3-0.1,0.6-0.2,0.9c-0.1,0.3-0.4,0.6-0.8,1l-0.5,0.5c-0.3,0.3-0.5,0.6-0.5,1l0,0.4H247.6z M247.4,136 c0-0.3,0.1-0.5,0.3-0.6c0.2-0.2,0.4-0.3,0.7-0.3s0.5,0.1,0.7,0.3c0.2,0.2,0.3,0.4,0.3,0.6c0,0.3-0.1,0.5-0.3,0.6 c-0.2,0.2-0.4,0.3-0.7,0.3s-0.5-0.1-0.7-0.3C247.5,136.5,247.4,136.3,247.4,136z"></path> </g> <g> <path class="st0" d="M126.7,102.3h-107c-1.9,0-3.4-1.5-3.4-3.4V53.5c0-1.9,1.5-3.4,3.4-3.4h107c1.9,0,3.4,1.5,3.4,3.4v45.4 C130,100.8,128.5,102.3,126.7,102.3z"></path> <g> <g> <path class="st1" d="M57.1,64.9H54l-0.6,1.8h-1.9l3.2-8.5h1.6l3.2,8.5h-1.9L57.1,64.9z M54.5,63.5h2.1l-1.1-3.2L54.5,63.5z"></path> <path class="st1" d="M70,63.8c-0.1,0.9-0.4,1.6-1,2.2s-1.4,0.8-2.4,0.8c-1.1,0-2-0.4-2.6-1.1s-0.9-1.7-0.9-3v-0.5 c0-0.8,0.1-1.5,0.4-2.2s0.7-1.1,1.2-1.4s1.2-0.5,1.9-0.5c1,0,1.8,0.3,2.4,0.8s0.9,1.3,1,2.2h-1.8c0-0.6-0.2-1-0.5-1.2 s-0.7-0.4-1.2-0.4c-0.6,0-1,0.2-1.3,0.6s-0.4,1.1-0.4,2v0.6c0,0.9,0.1,1.6,0.4,2s0.7,0.6,1.3,0.6c0.5,0,0.9-0.1,1.2-0.4 s0.4-0.6,0.5-1.2H70z"></path> <path class="st1" d="M72.7,61c0.4-0.5,1-0.8,1.7-0.8c1.4,0,2.1,0.8,2.1,2.4v4.1h-1.7v-4c0-0.4-0.1-0.6-0.2-0.8s-0.4-0.3-0.8-0.3 c-0.5,0-0.9,0.2-1.1,0.6v4.5H71v-9h1.7V61z"></path> <path class="st1" d="M80.7,66.8c-0.9,0-1.7-0.3-2.3-0.9s-0.9-1.3-0.9-2.3v-0.2c0-0.6,0.1-1.2,0.4-1.7s0.6-0.9,1-1.2 s1-0.4,1.5-0.4c0.9,0,1.5,0.3,2,0.8s0.7,1.3,0.7,2.3V64h-4c0.1,0.4,0.2,0.7,0.5,1s0.6,0.4,1,0.4c0.7,0,1.2-0.2,1.5-0.7l0.8,0.9 c-0.3,0.4-0.6,0.6-1,0.8S81.2,66.8,80.7,66.8z M80.5,61.5c-0.3,0-0.6,0.1-0.8,0.3s-0.3,0.6-0.4,1h2.4v-0.1c0-0.4-0.1-0.7-0.3-0.9 S80.9,61.5,80.5,61.5z"></path> <path class="st1" d="M86.9,65.4c0.3,0,0.6-0.1,0.8-0.3s0.3-0.4,0.3-0.7h1.6c0,0.4-0.1,0.8-0.4,1.2s-0.5,0.6-0.9,0.8 s-0.8,0.3-1.3,0.3c-0.9,0-1.6-0.3-2.1-0.9S84,64.5,84,63.5v-0.1c0-1,0.3-1.8,0.8-2.3s1.2-0.9,2.1-0.9c0.8,0,1.4,0.2,1.9,0.7 s0.7,1.1,0.7,1.8H88c0-0.3-0.1-0.6-0.3-0.8s-0.5-0.3-0.8-0.3c-0.4,0-0.7,0.1-0.9,0.4c-0.2,0.3-0.3,0.8-0.3,1.4v0.2 c0,0.7,0.1,1.1,0.3,1.4C86.2,65.2,86.5,65.4,86.9,65.4z"></path> <path class="st1" d="M92.8,64.1l-0.6,0.6v1.9h-1.7v-9h1.7v5l0.3-0.4l1.6-1.9h2l-2.3,2.6l2.5,3.7h-1.9L92.8,64.1z"></path> <path class="st1" d="M53.6,77.8c0-0.6,0.1-1.2,0.4-1.7s0.6-0.9,1-1.1s1-0.4,1.6-0.4c0.9,0,1.6,0.3,2.1,0.8s0.8,1.2,0.9,2.1l0,0.4 c0,1-0.3,1.8-0.8,2.3s-1.3,0.9-2.2,0.9s-1.6-0.3-2.2-0.9S53.6,78.9,53.6,77.8L53.6,77.8z M55.3,77.9c0,0.6,0.1,1.1,0.3,1.4 c0.2,0.3,0.6,0.5,1,0.5c0.4,0,0.7-0.2,1-0.5c0.2-0.3,0.3-0.8,0.3-1.5c0-0.6-0.1-1-0.3-1.4c-0.2-0.3-0.6-0.5-1-0.5 c-0.4,0-0.7,0.2-1,0.5C55.4,76.8,55.3,77.3,55.3,77.9z"></path> <path class="st1" d="M62.2,74.7l0.1,0.7c0.5-0.6,1.1-0.8,1.8-0.8c0.7,0,1.2,0.2,1.5,0.6s0.5,1,0.5,1.8V81h-1.7V77 c0-0.4-0.1-0.6-0.2-0.8S63.7,76,63.4,76c-0.5,0-0.8,0.2-1.1,0.6V81h-1.7v-6.3H62.2z"></path> <path class="st1" d="M76.9,72.5v5.6c0,0.9-0.3,1.7-0.9,2.2s-1.4,0.8-2.4,0.8c-1,0-1.8-0.3-2.4-0.8s-0.9-1.3-0.9-2.2v-5.7h1.8v5.6 c0,0.6,0.1,1,0.4,1.2s0.6,0.4,1.1,0.4c1,0,1.5-0.5,1.5-1.6v-5.7H76.9z"></path> <path class="st1" d="M81.7,79.3c0-0.2-0.1-0.4-0.3-0.5s-0.5-0.2-1-0.3c-1.5-0.3-2.3-1-2.3-1.9c0-0.6,0.2-1,0.7-1.4 s1.1-0.6,1.8-0.6c0.8,0,1.4,0.2,1.9,0.6s0.7,0.9,0.7,1.5h-1.7c0-0.2-0.1-0.4-0.2-0.6s-0.4-0.2-0.7-0.2c-0.3,0-0.5,0.1-0.7,0.2 s-0.2,0.3-0.2,0.5c0,0.2,0.1,0.3,0.3,0.5s0.5,0.2,0.9,0.3s0.8,0.2,1.1,0.3c0.9,0.3,1.3,0.9,1.3,1.7c0,0.6-0.2,1-0.7,1.4 s-1.1,0.5-1.9,0.5c-0.5,0-1-0.1-1.4-0.3s-0.7-0.4-1-0.8s-0.4-0.7-0.4-1.1h1.6c0,0.3,0.1,0.5,0.3,0.7s0.5,0.2,0.8,0.2 c0.3,0,0.6-0.1,0.7-0.2S81.7,79.5,81.7,79.3z"></path> <path class="st1" d="M87.3,81.2c-0.9,0-1.7-0.3-2.3-0.9S84.2,79,84.2,78v-0.2c0-0.6,0.1-1.2,0.4-1.7s0.6-0.9,1-1.2s1-0.4,1.5-0.4 c0.9,0,1.5,0.3,2,0.8s0.7,1.3,0.7,2.3v0.7h-4c0.1,0.4,0.2,0.7,0.5,1s0.6,0.4,1,0.4c0.7,0,1.2-0.2,1.5-0.7l0.8,0.9 c-0.3,0.4-0.6,0.6-1,0.8S87.9,81.2,87.3,81.2z M87.1,75.9c-0.3,0-0.6,0.1-0.8,0.3s-0.3,0.6-0.4,1h2.4v-0.1c0-0.4-0.1-0.7-0.3-0.9 S87.5,75.9,87.1,75.9z"></path> <path class="st1" d="M94.5,76.3c-0.2,0-0.4,0-0.6,0c-0.6,0-1.1,0.2-1.3,0.7V81h-1.7v-6.3h1.6l0,0.8c0.3-0.6,0.8-0.9,1.4-0.9 c0.2,0,0.4,0,0.5,0.1L94.5,76.3z"></path> <path class="st1" d="M34.8,92.6c-0.1,0.9-0.4,1.6-1,2.2s-1.4,0.8-2.4,0.8c-1.1,0-2-0.4-2.6-1.1s-0.9-1.7-0.9-3v-0.5 c0-0.8,0.1-1.5,0.4-2.2s0.7-1.1,1.2-1.4s1.2-0.5,1.9-0.5c1,0,1.8,0.3,2.4,0.8s0.9,1.3,1,2.2h-1.8c0-0.6-0.2-1-0.5-1.2 s-0.7-0.4-1.2-0.4c-0.6,0-1,0.2-1.3,0.6s-0.4,1.1-0.4,2v0.6c0,0.9,0.1,1.6,0.4,2s0.7,0.6,1.3,0.6c0.5,0,0.9-0.1,1.2-0.4 s0.4-0.6,0.5-1.2H34.8z"></path> <path class="st1" d="M35.6,92.2c0-0.6,0.1-1.2,0.4-1.7s0.6-0.9,1-1.1s1-0.4,1.6-0.4c0.9,0,1.6,0.3,2.1,0.8s0.8,1.2,0.9,2.1l0,0.4 c0,1-0.3,1.8-0.8,2.3s-1.3,0.9-2.2,0.9s-1.6-0.3-2.2-0.9S35.6,93.3,35.6,92.2L35.6,92.2z M37.3,92.3c0,0.6,0.1,1.1,0.3,1.4 c0.2,0.3,0.6,0.5,1,0.5c0.4,0,0.7-0.2,1-0.5c0.2-0.3,0.3-0.8,0.3-1.5c0-0.6-0.1-1-0.3-1.4c-0.2-0.3-0.6-0.5-1-0.5 c-0.4,0-0.7,0.2-1,0.5C37.4,91.2,37.3,91.7,37.3,92.3z"></path> <path class="st1" d="M44.3,89.1l0.1,0.7c0.4-0.6,1.1-0.8,1.8-0.8c0.8,0,1.4,0.3,1.7,1c0.4-0.6,1.1-1,1.9-1c0.7,0,1.2,0.2,1.5,0.6 s0.5,1,0.5,1.8v4h-1.7v-4c0-0.4-0.1-0.6-0.2-0.8s-0.4-0.2-0.7-0.2c-0.5,0-0.9,0.2-1.1,0.7l0,4.4h-1.7v-4c0-0.4-0.1-0.6-0.2-0.8 s-0.4-0.2-0.7-0.2c-0.5,0-0.8,0.2-1,0.6v4.5h-1.7v-6.3H44.3z"></path> <path class="st1" d="M54.6,89.1l0.1,0.7c0.4-0.6,1.1-0.8,1.8-0.8c0.8,0,1.4,0.3,1.7,1c0.4-0.6,1.1-1,1.9-1c0.7,0,1.2,0.2,1.5,0.6 s0.5,1,0.5,1.8v4h-1.7v-4c0-0.4-0.1-0.6-0.2-0.8s-0.4-0.2-0.7-0.2c-0.5,0-0.9,0.2-1.1,0.7l0,4.4h-1.7v-4c0-0.4-0.1-0.6-0.2-0.8 s-0.4-0.2-0.7-0.2c-0.5,0-0.8,0.2-1,0.6v4.5h-1.7v-6.3H54.6z"></path> <path class="st1" d="M63.2,92.2c0-0.6,0.1-1.2,0.4-1.7s0.6-0.9,1-1.1s1-0.4,1.6-0.4c0.9,0,1.6,0.3,2.1,0.8s0.8,1.2,0.9,2.1l0,0.4 c0,1-0.3,1.8-0.8,2.3s-1.3,0.9-2.2,0.9s-1.6-0.3-2.2-0.9S63.2,93.3,63.2,92.2L63.2,92.2z M64.9,92.3c0,0.6,0.1,1.1,0.3,1.4 c0.2,0.3,0.6,0.5,1,0.5c0.4,0,0.7-0.2,1-0.5c0.2-0.3,0.3-0.8,0.3-1.5c0-0.6-0.1-1-0.3-1.4c-0.2-0.3-0.6-0.5-1-0.5 c-0.4,0-0.7,0.2-1,0.5C65,91.2,64.9,91.7,64.9,92.3z"></path> <path class="st1" d="M70,92.2c0-1,0.2-1.8,0.7-2.4s1-0.9,1.8-0.9c0.6,0,1.1,0.2,1.5,0.7v-3.2h1.7v9h-1.5l-0.1-0.7 c-0.4,0.5-1,0.8-1.6,0.8c-0.7,0-1.3-0.3-1.8-0.9S70,93.3,70,92.2z M71.7,92.3c0,0.6,0.1,1.1,0.3,1.4c0.2,0.3,0.5,0.5,0.9,0.5 c0.5,0,0.9-0.2,1.1-0.7V91c-0.2-0.4-0.6-0.7-1.1-0.7C72.1,90.4,71.7,91,71.7,92.3z"></path> <path class="st1" d="M77,87.5c0-0.3,0.1-0.5,0.3-0.6s0.4-0.2,0.7-0.2c0.3,0,0.5,0.1,0.7,0.2s0.3,0.4,0.3,0.6 c0,0.3-0.1,0.5-0.3,0.6s-0.4,0.2-0.7,0.2s-0.5-0.1-0.7-0.2S77,87.7,77,87.5z M78.8,95.4h-1.7v-6.3h1.7V95.4z"></path> <path class="st1" d="M80.6,95.4v-5.1h-0.9v-1.2h0.9v-0.5c0-0.7,0.2-1.3,0.6-1.7s1-0.6,1.7-0.6c0.2,0,0.5,0,0.9,0.1l0,1.3 c-0.1,0-0.3-0.1-0.5-0.1c-0.6,0-1,0.3-1,0.9v0.5h1.3v1.2h-1.3v5.1H80.6z"></path> <path class="st1" d="M84.5,87.5c0-0.3,0.1-0.5,0.3-0.6s0.4-0.2,0.7-0.2c0.3,0,0.5,0.1,0.7,0.2s0.3,0.4,0.3,0.6 c0,0.3-0.1,0.5-0.3,0.6s-0.4,0.2-0.7,0.2s-0.5-0.1-0.7-0.2S84.5,87.7,84.5,87.5z M86.3,95.4h-1.7v-6.3h1.7V95.4z"></path> <path class="st1" d="M90.3,94.2c0.3,0,0.6-0.1,0.8-0.3s0.3-0.4,0.3-0.7h1.6c0,0.4-0.1,0.8-0.4,1.2s-0.5,0.6-0.9,0.8 s-0.8,0.3-1.3,0.3c-0.9,0-1.6-0.3-2.1-0.9s-0.8-1.4-0.8-2.4v-0.1c0-1,0.3-1.8,0.8-2.3s1.2-0.9,2.1-0.9c0.8,0,1.4,0.2,1.9,0.7 s0.7,1.1,0.7,1.8h-1.6c0-0.3-0.1-0.6-0.3-0.8s-0.5-0.3-0.8-0.3c-0.4,0-0.7,0.1-0.9,0.4c-0.2,0.3-0.3,0.8-0.3,1.4v0.2 c0,0.7,0.1,1.1,0.3,1.4C89.6,94,89.9,94.2,90.3,94.2z"></path> <path class="st1" d="M97.6,95.4c-0.1-0.2-0.1-0.3-0.2-0.6c-0.4,0.5-0.9,0.7-1.6,0.7c-0.6,0-1.1-0.2-1.5-0.5s-0.6-0.8-0.6-1.4 c0-0.7,0.2-1.2,0.7-1.5s1.2-0.5,2.2-0.5h0.8v-0.4c0-0.3-0.1-0.5-0.2-0.7s-0.4-0.3-0.7-0.3c-0.3,0-0.5,0.1-0.7,0.2 s-0.2,0.3-0.2,0.6h-1.7c0-0.4,0.1-0.7,0.3-1s0.5-0.6,1-0.7S96,89,96.5,89c0.8,0,1.4,0.2,1.9,0.6s0.7,0.9,0.7,1.7V94 c0,0.6,0.1,1.1,0.3,1.4v0.1H97.6z M96.2,94.3c0.3,0,0.5-0.1,0.7-0.2s0.4-0.3,0.5-0.4v-1.1h-0.6c-0.8,0-1.3,0.3-1.4,0.9l0,0.1 c0,0.2,0.1,0.4,0.2,0.5S95.9,94.3,96.2,94.3z"></path> <path class="st1" d="M102.4,87.5v1.6h1.1v1.2h-1.1v3.2c0,0.2,0,0.4,0.1,0.5s0.3,0.2,0.5,0.2c0.2,0,0.4,0,0.5,0v1.3 c-0.3,0.1-0.7,0.2-1,0.2c-1.2,0-1.8-0.6-1.8-1.8v-3.4h-0.9v-1.2h0.9v-1.6H102.4z"></path> <path class="st1" d="M104.4,87.5c0-0.3,0.1-0.5,0.3-0.6s0.4-0.2,0.7-0.2c0.3,0,0.5,0.1,0.7,0.2s0.3,0.4,0.3,0.6 c0,0.3-0.1,0.5-0.3,0.6s-0.4,0.2-0.7,0.2s-0.5-0.1-0.7-0.2S104.4,87.7,104.4,87.5z M106.2,95.4h-1.7v-6.3h1.7V95.4z"></path> <path class="st1" d="M107.3,92.2c0-0.6,0.1-1.2,0.4-1.7s0.6-0.9,1-1.1s1-0.4,1.6-0.4c0.9,0,1.6,0.3,2.1,0.8s0.8,1.2,0.9,2.1 l0,0.4c0,1-0.3,1.8-0.8,2.3s-1.3,0.9-2.2,0.9s-1.6-0.3-2.2-0.9S107.3,93.3,107.3,92.2L107.3,92.2z M109,92.3 c0,0.6,0.1,1.1,0.3,1.4c0.2,0.3,0.6,0.5,1,0.5c0.4,0,0.7-0.2,1-0.5c0.2-0.3,0.3-0.8,0.3-1.5c0-0.6-0.1-1-0.3-1.4 c-0.2-0.3-0.6-0.5-1-0.5c-0.4,0-0.7,0.2-1,0.5C109.1,91.2,109,91.7,109,92.3z"></path> <path class="st1" d="M115.9,89.1l0.1,0.7c0.5-0.6,1.1-0.8,1.8-0.8c0.7,0,1.2,0.2,1.5,0.6s0.5,1,0.5,1.8v4.1h-1.7v-4.1 c0-0.4-0.1-0.6-0.2-0.8s-0.4-0.2-0.8-0.2c-0.5,0-0.8,0.2-1.1,0.6v4.5h-1.7v-6.3H115.9z"></path> </g> <g> <path class="st2" d="M126,47.5c3.8,0,7,3.1,7,7v43.9c0,3.8-3.1,7-7,7H20.3c-3.8,0-7-3.1-7-7V54.5c0-3.8,3.1-7,7-7H126 M126,45.5 H20.3c-4.9,0-9,4-9,9v43.9c0,4.9,4,9,9,9H126c4.9,0,9-4,9-9V54.5C135,49.5,130.9,45.5,126,45.5L126,45.5z"></path> </g> </g> </g> <path class="st6" d="M186.6,70.8l79.1,1.5c16.9,0.3,26.7,19.2,17.3,33.2l-40.3,59.6c-8.6,12.7-27.4,12.4-35.6-0.5l-38.8-61.1 C159.1,89.2,169.6,70.5,186.6,70.8z"></path> <g> <path class="st7" d="M170.8,268.8c-4.4,0-8-3.6-8-8v-43.9c0-4.4,3.6-8,8-8h105.7c4.4,0,8,3.6,8,8v43.9c0,4.4-3.6,8-8,8H170.8z"></path> <path class="st2" d="M276.5,210c3.8,0,7,3.1,7,7v43.9c0,3.8-3.1,7-7,7H170.8c-3.8,0-7-3.1-7-7v-43.9c0-3.8,3.1-7,7-7H276.5 M276.5,208H170.8c-4.9,0-9,4-9,9v43.9c0,4.9,4,9,9,9h105.7c4.9,0,9-4,9-9v-43.9C285.5,212,281.5,208,276.5,208L276.5,208z"></path> </g> <path class="st0" d="M277.2,265h-107c-1.9,0-3.4-1.5-3.4-3.4v-45.4c0-1.9,1.5-3.4,3.4-3.4h107c1.9,0,3.4,1.5,3.4,3.4v45.4 C280.5,263.4,279,265,277.2,265z"></path> <g> <path class="st1" d="M205,232.6c0-0.3-0.1-0.6-0.4-0.8s-0.7-0.4-1.3-0.6s-1.1-0.4-1.4-0.6c-1-0.5-1.5-1.2-1.5-2.1 c0-0.5,0.1-0.9,0.4-1.2s0.6-0.6,1.1-0.8s1-0.3,1.6-0.3c0.6,0,1.2,0.1,1.6,0.3s0.8,0.5,1.1,0.9s0.4,0.9,0.4,1.4H205 c0-0.4-0.1-0.7-0.4-0.9s-0.6-0.3-1-0.3c-0.4,0-0.8,0.1-1,0.3s-0.4,0.4-0.4,0.7c0,0.3,0.1,0.5,0.4,0.7s0.7,0.4,1.2,0.5 c1,0.3,1.7,0.7,2.2,1.1s0.7,1,0.7,1.7c0,0.7-0.3,1.3-0.8,1.7s-1.3,0.6-2.3,0.6c-0.7,0-1.3-0.1-1.8-0.4s-1-0.6-1.2-1 s-0.4-0.9-0.4-1.5h1.8c0,0.9,0.6,1.4,1.7,1.4c0.4,0,0.7-0.1,1-0.3S205,232.9,205,232.6z"></path> <path class="st1" d="M210.5,233.6c0.3,0,0.6-0.1,0.8-0.3s0.3-0.4,0.3-0.7h1.6c0,0.4-0.1,0.8-0.4,1.2s-0.5,0.6-0.9,0.8 s-0.8,0.3-1.3,0.3c-0.9,0-1.6-0.3-2.1-0.9s-0.8-1.4-0.8-2.4v-0.1c0-1,0.3-1.8,0.8-2.3s1.2-0.9,2.1-0.9c0.8,0,1.4,0.2,1.9,0.7 s0.7,1.1,0.7,1.8h-1.6c0-0.3-0.1-0.6-0.3-0.8s-0.5-0.3-0.8-0.3c-0.4,0-0.7,0.1-0.9,0.4c-0.2,0.3-0.3,0.8-0.3,1.4v0.2 c0,0.7,0.1,1.1,0.3,1.4C209.8,233.5,210.1,233.6,210.5,233.6z"></path> <path class="st1" d="M213.8,231.6c0-0.6,0.1-1.2,0.4-1.7s0.6-0.9,1-1.1s1-0.4,1.6-0.4c0.9,0,1.6,0.3,2.1,0.8s0.8,1.2,0.9,2.1l0,0.4 c0,1-0.3,1.8-0.8,2.3s-1.3,0.9-2.2,0.9s-1.6-0.3-2.2-0.9S213.8,232.7,213.8,231.6L213.8,231.6z M215.5,231.8c0,0.6,0.1,1.1,0.3,1.4 c0.2,0.3,0.6,0.5,1,0.5c0.4,0,0.7-0.2,1-0.5c0.2-0.3,0.3-0.8,0.3-1.5c0-0.6-0.1-1-0.3-1.4c-0.2-0.3-0.6-0.5-1-0.5 c-0.4,0-0.7,0.2-1,0.5C215.6,230.6,215.5,231.1,215.5,231.8z"></path> <path class="st1" d="M226.6,231.8c0,1-0.2,1.8-0.7,2.3s-1,0.9-1.8,0.9c-0.6,0-1.2-0.2-1.6-0.7v3h-1.7v-8.8h1.6l0.1,0.6 c0.4-0.5,0.9-0.7,1.6-0.7c0.8,0,1.4,0.3,1.8,0.9S226.6,230.7,226.6,231.8L226.6,231.8z M224.9,231.6c0-0.6-0.1-1-0.3-1.4 s-0.5-0.5-0.9-0.5c-0.5,0-0.9,0.2-1.1,0.6v2.6c0.2,0.4,0.6,0.6,1.1,0.6C224.5,233.6,224.9,233,224.9,231.6z"></path> <path class="st1" d="M230.6,235c-0.9,0-1.7-0.3-2.3-0.9s-0.9-1.3-0.9-2.3v-0.2c0-0.6,0.1-1.2,0.4-1.7s0.6-0.9,1-1.2s1-0.4,1.5-0.4 c0.9,0,1.5,0.3,2,0.8s0.7,1.3,0.7,2.3v0.7h-4c0.1,0.4,0.2,0.7,0.5,1s0.6,0.4,1,0.4c0.7,0,1.2-0.2,1.5-0.7l0.8,0.9 c-0.3,0.4-0.6,0.6-1,0.8S231.1,235,230.6,235z M230.4,229.8c-0.3,0-0.6,0.1-0.8,0.3s-0.3,0.6-0.4,1h2.4V231c0-0.4-0.1-0.7-0.3-0.9 S230.7,229.8,230.4,229.8z"></path> <path class="st1" d="M236.8,231.6c0-0.6,0.1-1.2,0.4-1.7s0.6-0.9,1-1.1s1-0.4,1.6-0.4c0.9,0,1.6,0.3,2.1,0.8s0.8,1.2,0.9,2.1l0,0.4 c0,1-0.3,1.8-0.8,2.3s-1.3,0.9-2.2,0.9s-1.6-0.3-2.2-0.9S236.8,232.7,236.8,231.6L236.8,231.6z M238.5,231.8c0,0.6,0.1,1.1,0.3,1.4 c0.2,0.3,0.6,0.5,1,0.5c0.4,0,0.7-0.2,1-0.5c0.2-0.3,0.3-0.8,0.3-1.5c0-0.6-0.1-1-0.3-1.4c-0.2-0.3-0.6-0.5-1-0.5 c-0.4,0-0.7,0.2-1,0.5C238.7,230.6,238.5,231.1,238.5,231.8z"></path> <path class="st1" d="M244.4,234.9v-5.1h-0.9v-1.2h0.9V228c0-0.7,0.2-1.3,0.6-1.7s1-0.6,1.7-0.6c0.2,0,0.5,0,0.9,0.1l0,1.3 c-0.1,0-0.3-0.1-0.5-0.1c-0.6,0-1,0.3-1,0.9v0.5h1.3v1.2h-1.3v5.1H244.4z"></path> <path class="st1" d="M189.9,246.4c-0.1,0.9-0.4,1.6-1,2.2s-1.4,0.8-2.4,0.8c-1.1,0-2-0.4-2.6-1.1s-0.9-1.7-0.9-3v-0.5 c0-0.8,0.1-1.5,0.4-2.2s0.7-1.1,1.2-1.4s1.2-0.5,1.9-0.5c1,0,1.8,0.3,2.4,0.8s0.9,1.3,1,2.2h-1.8c0-0.6-0.2-1-0.5-1.2 s-0.7-0.4-1.2-0.4c-0.6,0-1,0.2-1.3,0.6s-0.4,1.1-0.4,2v0.6c0,0.9,0.1,1.6,0.4,2s0.7,0.6,1.3,0.6c0.5,0,0.9-0.1,1.2-0.4 s0.4-0.6,0.5-1.2H189.9z"></path> <path class="st1" d="M194.5,244.5c-0.2,0-0.4,0-0.6,0c-0.6,0-1.1,0.2-1.3,0.7v4.1H191v-6.3h1.6l0,0.8c0.3-0.6,0.8-0.9,1.4-0.9 c0.2,0,0.4,0,0.5,0.1L194.5,244.5z"></path> <path class="st1" d="M194.9,246.1c0-0.6,0.1-1.2,0.4-1.7s0.6-0.9,1-1.1s1-0.4,1.6-0.4c0.9,0,1.6,0.3,2.1,0.8s0.8,1.2,0.9,2.1l0,0.4 c0,1-0.3,1.8-0.8,2.3s-1.3,0.9-2.2,0.9s-1.6-0.3-2.2-0.9S194.9,247.1,194.9,246.1L194.9,246.1z M196.6,246.2c0,0.6,0.1,1.1,0.3,1.4 c0.2,0.3,0.6,0.5,1,0.5c0.4,0,0.7-0.2,1-0.5c0.2-0.3,0.3-0.8,0.3-1.5c0-0.6-0.1-1-0.3-1.4c-0.2-0.3-0.6-0.5-1-0.5 c-0.4,0-0.7,0.2-1,0.5C196.7,245,196.6,245.5,196.6,246.2z"></path> <path class="st1" d="M207.4,247l0.8-4h1.6l-1.6,6.3h-1.4l-1.2-4l-1.2,4H203l-1.6-6.3h1.6l0.8,4l1.2-4h1.2L207.4,247z"></path> <path class="st1" d="M210.5,246.1c0-1,0.2-1.8,0.7-2.4s1-0.9,1.8-0.9c0.6,0,1.1,0.2,1.5,0.7v-3.2h1.7v9h-1.5l-0.1-0.7 c-0.4,0.5-1,0.8-1.6,0.8c-0.7,0-1.3-0.3-1.8-0.9S210.5,247.1,210.5,246.1z M212.2,246.2c0,0.6,0.1,1.1,0.3,1.4 c0.2,0.3,0.5,0.5,0.9,0.5c0.5,0,0.9-0.2,1.1-0.7v-2.5c-0.2-0.4-0.6-0.7-1.1-0.7C212.6,244.2,212.2,244.9,212.2,246.2z"></path> <path class="st1" d="M220.8,246.3h-3.3v-1.4h3.3V246.3z"></path> <path class="st1" d="M227.4,245.8H224v3.5h-1.8v-8.5h5.6v1.4H224v2.2h3.4V245.8z"></path> <path class="st1" d="M232.4,248.6c-0.4,0.5-1,0.8-1.7,0.8c-0.7,0-1.2-0.2-1.6-0.6s-0.5-1-0.5-1.7v-4.2h1.7v4.1c0,0.7,0.3,1,0.9,1 c0.6,0,1-0.2,1.2-0.6v-4.5h1.7v6.3h-1.6L232.4,248.6z"></path> <path class="st1" d="M236.9,242.9l0.1,0.7c0.5-0.6,1.1-0.8,1.8-0.8c0.7,0,1.2,0.2,1.5,0.6s0.5,1,0.5,1.8v4.1h-1.7v-4.1 c0-0.4-0.1-0.6-0.2-0.8s-0.4-0.2-0.8-0.2c-0.5,0-0.8,0.2-1.1,0.6v4.5h-1.7v-6.3H236.9z"></path> <path class="st1" d="M241.8,246.1c0-1,0.2-1.8,0.7-2.4s1-0.9,1.8-0.9c0.6,0,1.1,0.2,1.5,0.7v-3.2h1.7v9H246l-0.1-0.7 c-0.4,0.5-1,0.8-1.6,0.8c-0.7,0-1.3-0.3-1.8-0.9S241.8,247.1,241.8,246.1z M243.5,246.2c0,0.6,0.1,1.1,0.3,1.4 c0.2,0.3,0.5,0.5,0.9,0.5c0.5,0,0.9-0.2,1.1-0.7v-2.5c-0.2-0.4-0.6-0.7-1.1-0.7C243.9,244.2,243.5,244.9,243.5,246.2z"></path> <path class="st1" d="M248.8,241.3c0-0.3,0.1-0.5,0.3-0.6s0.4-0.2,0.7-0.2c0.3,0,0.5,0.1,0.7,0.2s0.3,0.4,0.3,0.6 c0,0.3-0.1,0.5-0.3,0.6s-0.4,0.2-0.7,0.2s-0.5-0.1-0.7-0.2S248.8,241.6,248.8,241.3z M250.6,249.3h-1.7v-6.3h1.7V249.3z"></path> <path class="st1" d="M253.5,242.9l0.1,0.7c0.5-0.6,1.1-0.8,1.8-0.8c0.7,0,1.2,0.2,1.5,0.6s0.5,1,0.5,1.8v4.1h-1.7v-4.1 c0-0.4-0.1-0.6-0.2-0.8s-0.4-0.2-0.8-0.2c-0.5,0-0.8,0.2-1.1,0.6v4.5h-1.7v-6.3H253.5z"></path> <path class="st1" d="M258.4,246.1c0-1,0.2-1.8,0.7-2.3s1.1-0.9,1.9-0.9c0.7,0,1.2,0.2,1.6,0.7l0.1-0.6h1.5v6.1c0,0.6-0.1,1-0.4,1.4 s-0.6,0.7-1.1,0.9s-1,0.3-1.6,0.3c-0.5,0-0.9-0.1-1.4-0.3s-0.8-0.4-1-0.7l0.8-1c0.4,0.5,0.9,0.7,1.5,0.7c0.4,0,0.8-0.1,1-0.4 s0.4-0.6,0.4-1v-0.3c-0.4,0.4-0.9,0.7-1.5,0.7c-0.8,0-1.4-0.3-1.8-0.9S258.4,247.1,258.4,246.1L258.4,246.1z M260.1,246.2 c0,0.6,0.1,1,0.3,1.4c0.2,0.3,0.5,0.5,0.9,0.5c0.5,0,0.9-0.2,1.1-0.6v-2.7c-0.2-0.4-0.6-0.6-1.1-0.6c-0.4,0-0.7,0.2-1,0.5 C260.3,245,260.1,245.5,260.1,246.2z"></path> </g> <g> <circle class="st0" cx="146.1" cy="77" r="19.4"></circle> <g> <path class="st8" d="M154.4,82.6c-1.4,0-2.9,0.1-4.3,0c-1-0.1-1.7-0.8-1.8-1.8c-0.1-1.2,0-2.3,0.5-3.4c0.2-0.5,0.6-1,1-1.4 c0.7-0.7,1.4-0.7,2.3-0.1c1,0.7,2.2,1,3.4,0.6c0.5-0.1,1-0.4,1.4-0.7c0.8-0.5,1.7-0.5,2.3,0.3c0.4,0.5,0.8,1.2,1,1.8 c0.2,0.8,0.4,1.7,0.4,2.6c0.1,1.3-0.9,2.2-2.4,2.2C156.9,82.6,155.6,82.6,154.4,82.6C154.4,82.6,154.4,82.6,154.4,82.6z"></path> <path class="st8" d="M157.7,72.6c0,1.9-1.4,3.3-3.3,3.3c-1.9,0-3.3-1.4-3.3-3.3c0-1.8,1.4-3.3,3.3-3.3 C156.2,69.2,157.7,70.7,157.7,72.6z"></path> </g> <g> <path class="st9" d="M145.1,87.9c-2.4,0-4.8,0.1-7.1,0c-1.7-0.1-2.8-1.4-3-3c-0.1-1.9,0-3.8,0.8-5.6c0.4-0.8,0.9-1.7,1.6-2.3 c1.2-1.1,2.4-1.1,3.8-0.1c1.7,1.2,3.6,1.6,5.6,1c0.8-0.2,1.6-0.7,2.3-1.1c1.4-0.8,2.8-0.8,3.9,0.4c0.7,0.9,1.3,1.9,1.6,3 c0.4,1.4,0.6,2.8,0.7,4.2c0.2,2.1-1.5,3.6-3.9,3.7c-2.1,0-4.1,0-6.2,0C145.1,88,145.1,87.9,145.1,87.9z"></path> <path class="st9" d="M150.6,71.5c0,3.1-2.4,5.4-5.5,5.4c-3.1,0-5.4-2.3-5.5-5.4c0-3,2.4-5.5,5.4-5.5 C148.1,65.9,150.5,68.4,150.6,71.5z"></path> </g> <polygon class="st10" points="139.6,83.5 147,91.5 158.9,78.6 157,76.6 146.9,87 141.6,81.4 "></polygon> </g> <g> <circle class="st0" cx="305.4" cy="79" r="19.4"></circle> <g> <g> <path class="st8" d="M305.5,89.9c-2.4,0-4.8,0.1-7.1,0c-1.7-0.1-2.8-1.4-3-3c-0.1-1.9,0-3.8,0.8-5.6c0.4-0.8,0.9-1.7,1.6-2.3 c1.2-1.1,2.4-1.1,3.8-0.1c1.7,1.2,3.6,1.6,5.6,1c0.8-0.2,1.6-0.7,2.3-1.1c1.4-0.8,2.8-0.8,3.9,0.4c0.7,0.9,1.3,1.9,1.6,3 c0.4,1.4,0.6,2.8,0.7,4.2c0.2,2.1-1.5,3.6-3.9,3.7c-2.1,0-4.1,0-6.2,0C305.5,90,305.5,89.9,305.5,89.9z"></path> <path class="st8" d="M310.9,73.5c0,3.1-2.4,5.4-5.5,5.4c-3.1,0-5.4-2.3-5.5-5.4c0-3,2.4-5.5,5.4-5.5 C308.4,67.9,310.9,70.4,310.9,73.5z"></path> </g> <path class="st7" d="M304,72.7c0-0.2,0-0.4,0-0.7c0-0.8,0.6-1.4,1.4-1.5c0.8,0,1.4,0.5,1.5,1.4c0,0.3,0,0.5,0,0.7 c0.7,0.1,0.7,0.1,0.7,0.8c0,0.8,0,1.5,0,2.3c0,0.4-0.1,0.5-0.5,0.5c-1.1,0-2.2,0-3.2,0c-0.4,0-0.5-0.2-0.5-0.5c0-0.8,0-1.5,0-2.3 C303.3,72.8,303.3,72.8,304,72.7z M304,75.5c1,0,1.9,0,2.8,0c0-0.7,0-1.4,0-2.1c-1,0-1.9,0-2.8,0C304,74.1,304,74.8,304,75.5z M306.2,72.7c0-0.5,0.2-1-0.4-1.3c-0.2-0.1-0.6-0.1-0.8,0c-0.5,0.3-0.3,0.8-0.3,1.3C305.2,72.7,305.7,72.7,306.2,72.7z"></path> </g> </g> <g> <circle class="st0" cx="224.8" cy="196.8" r="19.4"></circle> <g> <g> <path class="st8" d="M228.8,192.8c-0.3,0.3-0.6,0.6-0.9,0.9c0.1,0,0.2,0,0.3,0c0.1,0.1,0.3,0.3,0.3,0.4c0,0.1-0.2,0.4-0.3,0.4 c-0.5,0-1,0.1-1.5,0c-0.1,0-0.3-0.3-0.4-0.5c-0.1-0.4,0-0.7,0-1.1c0-0.3,0.1-0.5,0.4-0.5c0.3,0,0.4,0.2,0.4,0.5c0,0,0,0.1,0,0.2 c0.3-0.3,0.6-0.6,0.9-1c-1.9-2.5-0.9-5.5,0.9-6.8c2-1.5,4.8-1.2,6.4,0.6c1.6,1.7,1.7,4.4,0.1,6.2 C233.9,194.1,231,194.6,228.8,192.8z"></path> <path class="st7" d="M232.3,187.4c0.2,0,0.3,0,0.5,0c0.2,0,0.4,0.2,0.4,0.4c0,0.2-0.2,0.3-0.4,0.4c-0.4,0.1-0.7,0-1.1,0 c-0.2,0-0.5,0-0.5,0.3c0,0.3,0.2,0.3,0.5,0.3c0.1,0,0.3,0,0.4,0c0.5,0,0.9,0.4,1,0.9c0.1,0.5-0.1,1-0.5,1.3 c-0.2,0.1-0.3,0.2-0.3,0.4c0,0.3,0,0.6-0.4,0.6c-0.4,0-0.4-0.3-0.4-0.6c0-0.1,0-0.1,0-0.2c-0.2,0-0.3,0-0.5,0 c-0.3,0-0.5-0.1-0.5-0.4c0-0.3,0.2-0.4,0.5-0.4c0.3,0,0.6,0,1,0c0.2,0,0.4-0.2,0.4-0.3c0-0.3-0.2-0.3-0.4-0.3c-0.1,0-0.3,0-0.4,0 c-0.6,0-1-0.4-1.1-1c-0.1-0.6,0.2-1.1,0.8-1.3c0.1,0,0.1-0.1,0.2-0.1c0.1-0.3-0.1-0.8,0.4-0.8C232.4,186.5,232.2,187,232.3,187.4 z"></path> </g> <g> <path class="st8" d="M214.7,192.2c-1.6-1.8-1.5-4.5,0.1-6.2c1.7-1.8,4.5-2,6.4-0.6c1.8,1.3,2.8,4.3,0.9,6.8 c0.3,0.3,0.6,0.6,0.9,1c0-0.1,0-0.1,0-0.2c0-0.3,0.1-0.5,0.4-0.5c0.3,0,0.4,0.2,0.4,0.5c0,0.4,0,0.8,0,1.1c0,0.2-0.2,0.5-0.4,0.5 c-0.5,0.1-1,0.1-1.5,0c-0.1,0-0.3-0.3-0.3-0.4c0-0.1,0.2-0.3,0.3-0.4c0.1-0.1,0.2,0,0.3,0c-0.3-0.3-0.6-0.6-0.9-0.9 C219.2,194.6,216.3,194.1,214.7,192.2z"></path> <path class="st7" d="M218.8,187.4c0.2,0,0.3,0,0.5,0c0.2,0,0.4,0.2,0.4,0.4c0,0.2-0.2,0.3-0.4,0.4c-0.4,0.1-0.7,0-1.1,0 c-0.2,0-0.5,0-0.5,0.3c0,0.3,0.2,0.3,0.5,0.3c0.1,0,0.3,0,0.4,0c0.5,0,0.9,0.4,1,0.9c0.1,0.5-0.1,1-0.5,1.3 c-0.2,0.1-0.3,0.2-0.3,0.4c0,0.3,0,0.6-0.4,0.6c-0.4,0-0.4-0.3-0.4-0.6c0-0.1,0-0.1,0-0.2c-0.2,0-0.3,0-0.5,0 c-0.3,0-0.5-0.1-0.5-0.4c0-0.3,0.2-0.4,0.5-0.4c0.3,0,0.6,0,1,0c0.2,0,0.4-0.2,0.4-0.3c0-0.3-0.2-0.3-0.4-0.3c-0.1,0-0.3,0-0.4,0 c-0.6,0-1-0.4-1.1-1c-0.1-0.6,0.2-1.1,0.8-1.3c0.1,0,0.1-0.1,0.2-0.1c0.1-0.3-0.1-0.8,0.4-0.8C218.9,186.5,218.7,187,218.8,187.4 z"></path> </g> <g> <path class="st8" d="M227.9,201.2c-0.3-0.3-0.7-0.5-1-0.8c0,0.1,0,0.2,0,0.3c-0.1,0.2-0.2,0.3-0.4,0.4c-0.1,0-0.4-0.1-0.4-0.3 c-0.1-0.5-0.1-1-0.1-1.5c0-0.1,0.3-0.4,0.5-0.4c0.4-0.1,0.7-0.1,1.1-0.1c0.3,0,0.5,0,0.6,0.4c0,0.3-0.2,0.4-0.5,0.5 c0,0-0.1,0-0.2,0c0.4,0.3,0.7,0.5,1,0.8c2.3-2.1,5.4-1.4,6.8,0.2c1.6,1.8,1.7,4.6,0,6.5c-1.6,1.8-4.3,2.1-6.2,0.7 C227.2,206.5,226.4,203.6,227.9,201.2z"></path> <path class="st7" d="M232.3,202c0.2,0,0.3,0,0.5,0c0.2,0,0.4,0.2,0.4,0.4c0,0.2-0.2,0.3-0.4,0.4c-0.4,0.1-0.7,0-1.1,0 c-0.2,0-0.5,0-0.5,0.3c0,0.3,0.2,0.3,0.5,0.3c0.1,0,0.3,0,0.4,0c0.5,0,0.9,0.4,1,0.9c0.1,0.5-0.1,1-0.5,1.3 c-0.2,0.1-0.3,0.2-0.3,0.4c0,0.3,0,0.6-0.4,0.6c-0.4,0-0.4-0.3-0.4-0.6c0-0.1,0-0.1,0-0.2c-0.2,0-0.3,0-0.5,0 c-0.3,0-0.5-0.1-0.5-0.4c0-0.3,0.2-0.4,0.5-0.4c0.3,0,0.6,0,1,0c0.2,0,0.4-0.2,0.4-0.3c0-0.3-0.2-0.3-0.4-0.3c-0.1,0-0.3,0-0.4,0 c-0.6,0-1-0.4-1.1-1c-0.1-0.6,0.2-1.1,0.8-1.3c0.1,0,0.1-0.1,0.2-0.1c0.1-0.3-0.1-0.8,0.4-0.8C232.4,201.1,232.3,201.6,232.3,202 z"></path> </g> <g> <path class="st8" d="M219.9,207.8c-2.1,1.2-4.7,0.6-6.1-1.3c-1.4-2-1.1-4.8,0.7-6.4c1.6-1.5,4.7-1.9,6.8,0.4 c0.4-0.2,0.7-0.4,1.1-0.7c-0.1,0-0.1-0.1-0.2-0.1c-0.3,0-0.5-0.2-0.4-0.5c0.1-0.3,0.3-0.4,0.6-0.3c0.4,0.1,0.7,0.1,1.1,0.2 c0.2,0.1,0.4,0.3,0.4,0.4c0,0.5-0.1,1-0.3,1.5c0,0.1-0.3,0.3-0.4,0.2c-0.1,0-0.2-0.3-0.3-0.4c0-0.1,0-0.2,0-0.3 c-0.4,0.2-0.7,0.5-1.1,0.7C223.1,203.8,222,206.6,219.9,207.8z"></path> <path class="st7" d="M218.1,201.7c0.2,0,0.3,0,0.5,0c0.2,0,0.4,0.2,0.4,0.4c0,0.2-0.2,0.3-0.4,0.4c-0.4,0.1-0.7,0-1.1,0 c-0.2,0-0.5,0-0.5,0.3c0,0.3,0.2,0.3,0.5,0.3c0.1,0,0.3,0,0.4,0c0.5,0,0.9,0.4,1,0.9c0.1,0.5-0.1,1-0.5,1.3 c-0.2,0.1-0.3,0.2-0.3,0.4c0,0.3,0,0.6-0.4,0.6c-0.4,0-0.4-0.3-0.4-0.6c0-0.1,0-0.1,0-0.2c-0.2,0-0.3,0-0.5,0 c-0.3,0-0.5-0.1-0.5-0.4c0-0.3,0.2-0.4,0.5-0.4c0.3,0,0.6,0,1,0c0.2,0,0.4-0.2,0.4-0.3c0-0.3-0.2-0.3-0.4-0.3c-0.1,0-0.3,0-0.4,0 c-0.6,0-1-0.4-1.1-1c-0.1-0.6,0.2-1.1,0.8-1.3c0.1,0,0.1-0.1,0.2-0.1c0.1-0.3-0.1-0.8,0.4-0.8C218.2,200.9,218,201.4,218.1,201.7 z"></path> </g> </g> </g> </svg> 